<?xml version="1.0" encoding="utf-8"?>
<!-- Generator: Adobe Illustrator 26.5.0, SVG Export Plug-In . SVG Version: 6.00 Build 0)  -->
<svg version="1.1" id="Layer_1" xmlns="http://www.w3.org/2000/svg" xmlns:xlink="http://www.w3.org/1999/xlink" x="0px" y="0px"
	 viewBox="0 0 800 800" style="enable-background:new 0 0 800 800;" xml:space="preserve">
<style type="text/css">
	.st0{fill-rule:evenodd;clip-rule:evenodd;}
	.st1{fill:#FFFFFF;}
</style>
<path class="st0" d="M688.9,176c-7.1-13.4-18.1-24.4-31.5-31.5c-12.7-6.8-25.3-10.6-57.4-11.1V100c0-18.4-14.9-33.3-33.3-33.3
	c-18.4,0-33.3,14.9-33.3,33.3v33.3H266.7V100c0-18.4-14.9-33.3-33.3-33.3c-18.4,0-33.3,14.9-33.3,33.3v33.4
	c-32,0.5-44.7,4.3-57.4,11.1c-13.4,7.1-24.4,18.1-31.5,31.5c-7.3,13.6-11.1,27-11.1,64.2v353c0,37.1,3.9,50.6,11.1,64.2
	c7.3,13.6,17.9,24.2,31.5,31.5c13.6,7.3,27,11.1,64.2,11.1h386.3c37.1,0,50.6-3.9,64.2-11.1c13.6-7.3,24.2-17.9,31.5-31.5
	c7.3-13.6,11.1-27,11.1-64.2v-353C700,203,696.1,189.5,688.9,176z M633.3,593.2c0,14.2-0.6,23.1-1.6,28.3c-0.2,1.6-0.8,3.1-1.6,4.5
	c-0.9,1.8-2.4,3.2-4.2,4.1c-1.4,0.8-2.9,1.4-4.5,1.6c-5.2,1-14.1,1.6-28.3,1.6H206.8c-14.2,0-23.1-0.6-28.3-1.6
	c-2-0.4-2.5-0.6-4.5-1.6c-1.8-0.9-3.2-2.4-4.1-4.2c-1.1-2-1.2-2.5-1.6-4.5c-1-5.2-1.6-14.1-1.6-28.3V300h466.8L633.3,593.2z"/>
<rect x="439" y="451" class="st0" width="135.3" height="133.3"/>
<path class="st1" d="M659.4,608.7h63.5v57.1h55.4v54.8h-54.8v62.6h-64.7v-62.6H600v-55.1h59.1C659.1,665.5,659.4,608.1,659.4,608.7z
	"/>
<path d="M669.7,616.5h63.5v57.1h55.4v54.8h-54.8V791h-64.7v-62.6h-58.9v-55.1h59.1C669.4,673.3,669.7,615.9,669.7,616.5z"/>
</svg>
